<svg xmlns="http://www.w3.org/2000/svg" viewBox="0 0 211.28 66.49"><defs><style>.cls-1{fill:#6a6969;}.cls-2{fill:#ad0035;}.cls-3{fill:#656465;}</style></defs><g id="Ebene_2" data-name="Ebene 2"><g id="Ebene_2-2" data-name="Ebene 2"><path class="cls-1" d="M29.39,4.58c0,2.71-1.89,4.21-4.62,4.21H21.46v5.37H19.94V.51H25C27.52.51,29.39,1.81,29.39,4.58Zm-1.52.06A2.55,2.55,0,0,0,25,1.89H21.46V7.41h3.33C26.88,7.41,27.87,6.46,27.87,4.64Z"/><path class="cls-1" d="M37.49,4l-.38,1.48a2.88,2.88,0,0,0-1.54-.39c-1.42,0-2.22,1.15-2.22,3.1v6H31.89V3.92h1.46V5.19a3,3,0,0,1,2.54-1.48A3.9,3.9,0,0,1,37.49,4Z"/><path class="cls-1" d="M46.59,14.16H45.13V12.91a4.23,4.23,0,0,1-3.2,1.46,3,3,0,0,1-3.27-3.27c0-2.31,1.89-3.28,3.91-3.28a5.54,5.54,0,0,1,2.56.58V7.2c0-1.53-.72-2.27-2.22-2.27a5.4,5.4,0,0,0-2.79.78l-.55-1.19A7.42,7.42,0,0,1,43,3.71c2.21,0,3.59.93,3.59,3.31Zm-1.46-2.52V9.58A4.87,4.87,0,0,0,42.5,9c-1.5,0-2.4.72-2.4,2a1.92,1.92,0,0,0,2.08,2.18A3.58,3.58,0,0,0,45.13,11.64Z"/><path class="cls-1" d="M57.08,14.16H55.46l-2-3.55L53.12,10l-.31.57-2.05,3.55H49.24L52.4,8.87,49.46,3.92h1.62L52.89,7.1l.31.56.31-.56,1.84-3.18h1.52L53.92,8.83Z"/><path class="cls-1" d="M61.65,1.05a1,1,0,0,1-1,1,1.05,1.05,0,0,1-1.07-1,1.05,1.05,0,0,1,1.07-1A1,1,0,0,1,61.65,1.05Zm-.32,13.11H59.87V3.92h1.46Z"/><path class="cls-1" d="M71.1,11.49c0,2-1.73,2.88-3.51,2.88A5.76,5.76,0,0,1,64,13.07L64.84,12a4.23,4.23,0,0,0,2.79,1.13c1.41,0,2.07-.58,2.07-1.58,0-.83-.61-1.3-2.42-2.08-2-.88-2.9-1.5-2.9-3.14s1.34-2.61,3.19-2.61A5,5,0,0,1,70.85,4.8L70,5.87A3.72,3.72,0,0,0,67.48,5c-1.08,0-1.7.53-1.7,1.27s.53,1.21,2.26,2C70,9.09,71.1,9.65,71.1,11.49Z"/><path class="cls-1" d="M83.52,1.56a2.69,2.69,0,0,0-1.19-.23c-.6,0-1,.21-1,1.07V3.92h2V5.15h-2v9H79.82v-9H78.41V3.92h1.41V2.52A2.19,2.19,0,0,1,82.24,0a3.67,3.67,0,0,1,1.28.18Z"/><path class="cls-1" d="M94,14.16H92.51V12.91a3.29,3.29,0,0,1-2.82,1.46c-2.17,0-3.59-1.27-3.59-4.21V3.92h1.46v6c0,2.2.78,3.19,2.42,3.19,1.42,0,2.53-.95,2.53-3.19v-6H94ZM89.24,1.33a1.08,1.08,0,0,1-2.15,0,1.08,1.08,0,1,1,2.15,0Zm3.78,0a1.07,1.07,0,0,1-2.14,0,1.07,1.07,0,1,1,2.14,0Z"/><path class="cls-1" d="M102.91,4l-.37,1.48A2.94,2.94,0,0,0,101,5.05c-1.43,0-2.23,1.15-2.23,3.1v6H97.31V3.92h1.46V5.19a3,3,0,0,1,2.54-1.48A3.87,3.87,0,0,1,102.91,4Z"/><path class="cls-2" d="M19.56,26c0,8.49-6.14,12.08-12.35,12.08H0V14H7.56C14.46,14,19.56,17.2,19.56,26Zm-5,0c0-4.93-2.1-7.38-7.21-7.38H4.83V33.41H7.21C12.28,33.41,14.59,30.45,14.59,26Z"/><path class="cls-2" d="M38.23,29.07c0,.69,0,1.17-.07,1.51H27.32A3.49,3.49,0,0,0,31.05,34a4,4,0,0,0,3.1-1.28l3.39,2.83a8.44,8.44,0,0,1-6.49,2.93c-5.21,0-8.52-3.69-8.52-9.41,0-5.56,3.48-9.46,8.07-9.46C35.43,19.61,38.23,23.89,38.23,29.07ZM33.6,27a3.22,3.22,0,0,0-3.24-3.25c-1.73,0-2.8,1.42-3,3.25Z"/><path class="cls-2" d="M53.68,20.89l-1.24,4.66a4.11,4.11,0,0,0-2.76-1.18c-1.86,0-3.07.8-3.07,3.94v9.8H41.85V20h4.76V21.2a5,5,0,0,1,3.72-1.59A4.61,4.61,0,0,1,53.68,20.89Z"/><path class="cls-2" d="M82.42,38.11H77.66v-9.8c0-3.25-.93-4.21-2.9-4.21s-2.93,1-2.93,4.1v9.91H67.07v-9.8c0-3.25-.93-4.21-2.9-4.21s-2.93,1-2.93,4.1v9.91H56.48V20h4.76V21.2a5.23,5.23,0,0,1,4-1.59,5.68,5.68,0,0,1,5,2.31A7.22,7.22,0,0,1,76,19.61c4.62,0,6.45,3.18,6.45,8.28Z"/><path class="cls-2" d="M101.43,38.11H96.67V36.9a5.8,5.8,0,0,1-4.07,1.58c-3.38,0-6.77-2.06-6.77-6.45,0-4,3.25-6,7.35-6a7.66,7.66,0,0,1,3.49.72v-.89a2.29,2.29,0,0,0-2.59-2.31,9,9,0,0,0-5,1.2l-1.83-3.31a12.19,12.19,0,0,1,6.8-1.83c4.38,0,7.35,2.28,7.35,6.35Zm-4.76-5.32V30.52a5.5,5.5,0,0,0-3.31-.76c-1.8,0-2.76.82-2.76,2.27,0,1.28.72,2.42,2.76,2.42A3.91,3.91,0,0,0,96.67,32.79Z"/><path class="cls-2" d="M116.54,32.55l-.69,4.83a6.34,6.34,0,0,1-3.69,1.1c-2.93,0-4.83-2.27-4.83-5.45V24.48h-3V20h3V15.34L112.09,13v7h4.35v4.49h-4.35v7.28c0,1.72.62,2.17,1.76,2.17C114.71,33.93,115.37,33.55,116.54,32.55Z"/><path class="cls-2" d="M135.58,29.07c0,5.55-3.48,9.41-8.21,9.41s-8.17-3.86-8.17-9.41,3.45-9.46,8.17-9.46S135.58,23.51,135.58,29.07Zm-4.83,0c0-2.76-1.1-4.87-3.38-4.87S124,26.27,124,29.07s1.07,4.83,3.34,4.83S130.75,31.58,130.75,29.07Z"/><path class="cls-2" d="M144.07,38.11h-4.76V15.34L144.07,13Z"/><path class="cls-2" d="M164.15,29.07c0,5.55-3.48,9.41-8.21,9.41s-8.18-3.86-8.18-9.41,3.45-9.46,8.18-9.46S164.15,23.51,164.15,29.07Zm-4.83,0c0-2.76-1.1-4.87-3.38-4.87s-3.35,2.07-3.35,4.87,1.07,4.83,3.35,4.83S159.32,31.58,159.32,29.07Z"/><path class="cls-2" d="M182.37,35c0,6-1.45,9-7.8,9.72l-1.69-3.58c3.72-.52,4.72-1.42,4.72-4.21a5.57,5.57,0,0,1-3.83,1.51c-3.86,0-7-2.89-7-9.66,0-5.41,2.55-9.21,7-9.21A5.7,5.7,0,0,1,177.6,21V20h4.77Zm-4.77-2.56V25.65a3.77,3.77,0,0,0-3.2-1.55c-1.83,0-2.83,1.59-2.83,4.62,0,3.73,1.24,5.28,3.1,5.28A3.33,3.33,0,0,0,177.6,32.48Z"/><path class="cls-2" d="M192.2,15.78a2.73,2.73,0,1,1-2.73-2.72A2.75,2.75,0,0,1,192.2,15.78Zm-.35,22.33h-4.76V20h4.76Z"/><path class="cls-2" d="M211.28,29.07c0,.69,0,1.17-.07,1.51H200.37A3.49,3.49,0,0,0,204.1,34a4,4,0,0,0,3.1-1.28l3.39,2.83a8.44,8.44,0,0,1-6.49,2.93c-5.21,0-8.52-3.69-8.52-9.41,0-5.56,3.48-9.46,8.07-9.46C208.48,19.61,211.28,23.89,211.28,29.07ZM206.65,27a3.22,3.22,0,0,0-3.24-3.25c-1.73,0-2.79,1.42-3,3.25Z"/><path class="cls-3" d="M31.27,54.27c0,5.54-4,7.88-8,7.88H18.51V46.39h4.93C27.94,46.39,31.27,48.51,31.27,54.27Zm-3.24,0c0-3.22-1.37-4.81-4.7-4.81H21.66v9.63h1.56C26.52,59.09,28,57.15,28,54.27Z"/><path class="cls-3" d="M41.42,50.92l-.81,3a2.69,2.69,0,0,0-1.8-.77c-1.22,0-2,.52-2,2.57v6.39H33.7V50.33h3.1v.79a3.29,3.29,0,0,1,2.44-1A3,3,0,0,1,41.42,50.92Z"/><path class="cls-3" d="M44.37,60.28a2.12,2.12,0,1,1-2.12-2.11A2.15,2.15,0,0,1,44.37,60.28Z"/><path class="cls-3" d="M66.8,62.15H63.33L62.1,58.64H56.33L55.1,62.15H51.72l6-15.76h3.06ZM61,55.65l-1-2.86c-.31-.93-.63-1.87-.78-2.46-.16.59-.48,1.53-.79,2.46l-1,2.86Z"/><path class="cls-3" d="M72.42,62.15h-3.1V47.29l3.1-1.55Z"/><path class="cls-3" d="M85.5,56.25c0,.45,0,.77,0,1H78.38a2.28,2.28,0,0,0,2.43,2.23,2.63,2.63,0,0,0,2-.83l2.21,1.84a5.52,5.52,0,0,1-4.24,1.92c-3.39,0-5.55-2.41-5.55-6.15s2.27-6.16,5.26-6.16C83.67,50.09,85.5,52.88,85.5,56.25Zm-3-1.35a2.09,2.09,0,0,0-2.12-2.11,2,2,0,0,0-1.93,2.11Z"/><path class="cls-3" d="M95.15,58.53l-.45,3.15a4.18,4.18,0,0,1-2.41.72c-1.91,0-3.15-1.49-3.15-3.56V53.26h-2V50.33h2v-3l3.1-1.55v4.59h2.84v2.93H92.24V58c0,1.12.41,1.42,1.15,1.42C94,59.43,94.38,59.18,95.15,58.53Z"/><path class="cls-3" d="M105.09,58.53l-.45,3.15a4.18,4.18,0,0,1-2.41.72c-1.91,0-3.15-1.49-3.15-3.56V53.26h-2V50.33h2v-3l3.11-1.55v4.59H105v2.93h-2.83V58c0,1.12.4,1.42,1.15,1.42C103.9,59.43,104.33,59.18,105.09,58.53Z"/><path class="cls-3" d="M117.6,62.15h-3.1v-.79a3.78,3.78,0,0,1-2.66,1,4.12,4.12,0,0,1-4.41-4.21c0-2.61,2.12-3.92,4.79-3.92a5.06,5.06,0,0,1,2.28.47v-.58a1.5,1.5,0,0,0-1.69-1.51,5.78,5.78,0,0,0-3.24.79l-1.19-2.16a7.92,7.92,0,0,1,4.43-1.19c2.86,0,4.79,1.48,4.79,4.14Zm-3.1-3.47V57.2a3.58,3.58,0,0,0-2.16-.5c-1.17,0-1.8.54-1.8,1.49s.47,1.57,1.8,1.57A2.53,2.53,0,0,0,114.5,58.68Z"/><path class="cls-3" d="M140.58,56.05a5.94,5.94,0,0,1-6.33,6.35c-4.12,0-6.89-3.15-6.89-8.13,0-4.79,2.89-8.12,7-8.12a5.88,5.88,0,0,1,6,3.94l-3,1.23a3.07,3.07,0,0,0-3-2c-2.36,0-3.71,2.07-3.71,5s1.37,5,3.73,5c2.16,0,2.91-1,3.09-2.38h-2.5V54h5.65Z"/><path class="cls-3" d="M153.33,56.25c0,.45,0,.77,0,1h-7.07a2.28,2.28,0,0,0,2.43,2.23,2.63,2.63,0,0,0,2-.83l2.2,1.84a5.49,5.49,0,0,1-4.23,1.92c-3.4,0-5.56-2.41-5.56-6.15s2.28-6.16,5.27-6.16C151.51,50.09,153.33,52.88,153.33,56.25Zm-3-1.35a2.09,2.09,0,0,0-2.12-2.11,2,2,0,0,0-1.93,2.11Z"/><path class="cls-3" d="M166.23,56.25c0,3.63-2.28,6.15-5.36,6.15s-5.34-2.52-5.34-6.15,2.26-6.16,5.34-6.16S166.23,52.63,166.23,56.25Zm-3.16,0c0-1.8-.72-3.17-2.2-3.17s-2.18,1.35-2.18,3.17.69,3.15,2.18,3.15S163.07,57.9,163.07,56.25Z"/><path class="cls-3" d="M176.66,50.92l-.81,3a2.67,2.67,0,0,0-1.8-.77c-1.21,0-2,.52-2,2.57v6.39h-3.11V50.33h3.11v.79a3.28,3.28,0,0,1,2.43-1A3,3,0,0,1,176.66,50.92Z"/><path class="cls-3" d="M188.16,60.15c0,3.89-.94,5.89-5.08,6.34L182,64.15c2.43-.34,3.09-.92,3.09-2.74a3.7,3.7,0,0,1-2.5,1c-2.52,0-4.59-1.89-4.59-6.3,0-3.54,1.66-6,4.59-6a3.76,3.76,0,0,1,2.5.92v-.68h3.1Zm-3.1-1.67V54a2.5,2.5,0,0,0-2.1-1c-1.19,0-1.84,1-1.84,3,0,2.43.81,3.44,2,3.44A2.17,2.17,0,0,0,185.06,58.48Z"/><path class="cls-3" d="M195,47.59a1.78,1.78,0,1,1-1.78-1.78A1.8,1.8,0,0,1,195,47.59Zm-.22,14.56h-3.11V50.33h3.11Z"/><path class="cls-3" d="M201.66,47.59a1.78,1.78,0,1,1-1.78-1.78A1.8,1.8,0,0,1,201.66,47.59Zm-.22,14.56h-3.11V50.33h3.11Z"/></g></g></svg>