<svg xmlns="http://www.w3.org/2000/svg" viewBox="0 0 87.45 70.76"><defs><style>.cls-1{fill:#fff;}</style></defs><g id="Ebene_2" data-name="Ebene 2"><g id="Ebene_2-2" data-name="Ebene 2"><path class="cls-1" d="M5.18,30.46a5.15,5.15,0,0,1,3.69,1.41,4.9,4.9,0,0,1,0,7A5.15,5.15,0,0,1,5.18,40.3a5.26,5.26,0,0,1-3.66-1.38A4.55,4.55,0,0,1,0,35.38a4.63,4.63,0,0,1,1.52-3.47A5.1,5.1,0,0,1,5.18,30.46Zm15.45,0a5.29,5.29,0,0,1,3.65,1.37,4.81,4.81,0,0,1,0,7,5.1,5.1,0,0,1-3.65,1.45,5.12,5.12,0,0,1-3.69-1.41,4.88,4.88,0,0,1,0-7A5.12,5.12,0,0,1,20.63,30.46Zm15.37,0a5.15,5.15,0,0,1,3.69,1.41,4.88,4.88,0,0,1,0,7,5.53,5.53,0,0,1-7.38,0,4.9,4.9,0,0,1,0-7A5.15,5.15,0,0,1,36,30.46Zm15.45,0a5.31,5.31,0,0,1,3.66,1.37,4.81,4.81,0,0,1,0,7,5.12,5.12,0,0,1-3.66,1.45,5.36,5.36,0,0,1-3.73-1.38,4.55,4.55,0,0,1-1.52-3.54,4.63,4.63,0,0,1,1.52-3.47A5.2,5.2,0,0,1,51.45,30.46ZM58.45,0a5.12,5.12,0,0,1,3.66,1.45,4.63,4.63,0,0,1,1.52,3.47,4.78,4.78,0,0,1-1.45,3.54,5,5,0,0,1-3.73,1.45A5.1,5.1,0,0,1,54.8,8.46a4.7,4.7,0,0,1-1.52-3.54,4.71,4.71,0,0,1,1.45-3.47A5,5,0,0,1,58.45,0Zm0,60.92a5.16,5.16,0,0,1,3.7,1.41,4.64,4.64,0,0,1,1.48,3.51,4.71,4.71,0,0,1-1.45,3.47,5,5,0,0,1-3.73,1.45,5.1,5.1,0,0,1-3.65-1.45,4.81,4.81,0,0,1,0-7A5.15,5.15,0,0,1,58.45,60.92Zm7.92-50.79A5.08,5.08,0,0,1,70,11.58a4.67,4.67,0,0,1,1.53,3.54,4.74,4.74,0,0,1-1.45,3.47A5,5,0,0,1,66.37,20a5.08,5.08,0,0,1-3.65-1.45,4.6,4.6,0,0,1-1.53-3.47,4.67,4.67,0,0,1,1.53-3.54A5.08,5.08,0,0,1,66.37,10.13Zm0,40.59A5.08,5.08,0,0,1,70,52.17a4.6,4.6,0,0,1,1.53,3.47,4.82,4.82,0,0,1-1.45,3.54,5,5,0,0,1-3.73,1.45,5.08,5.08,0,0,1-3.65-1.45,4.67,4.67,0,0,1-1.53-3.54,4.6,4.6,0,0,1,1.53-3.47A5.08,5.08,0,0,1,66.37,50.72Zm.46-20.26a5.15,5.15,0,0,1,3.69,1.41,4.9,4.9,0,0,1,0,7,5.53,5.53,0,0,1-7.38,0,4.88,4.88,0,0,1,0-7A5.12,5.12,0,0,1,66.83,30.46Zm7.46-10.13A5.36,5.36,0,0,1,78,21.71a4.55,4.55,0,0,1,1.52,3.54A4.63,4.63,0,0,1,78,28.72a5.2,5.2,0,0,1-3.73,1.45,5.12,5.12,0,0,1-3.66-1.45,4.72,4.72,0,0,1,0-6.94A5.12,5.12,0,0,1,74.29,20.33Zm0,20.26A5.2,5.2,0,0,1,78,42,4.72,4.72,0,0,1,78,49a5.2,5.2,0,0,1-3.73,1.45,5.28,5.28,0,0,1-3.66-1.38,4.55,4.55,0,0,1-1.52-3.54A4.63,4.63,0,0,1,70.63,42,5.12,5.12,0,0,1,74.29,40.59Zm8-10.13a5.27,5.27,0,0,1,3.65,1.37,4.81,4.81,0,0,1,0,7,5.08,5.08,0,0,1-3.65,1.45,5.35,5.35,0,0,1-3.73-1.38A4.52,4.52,0,0,1,77,35.38a4.59,4.59,0,0,1,1.52-3.47A5.19,5.19,0,0,1,82.28,30.46Z"/></g></g></svg>